{"title":"Orphan 2009 TS XviD-Fatal","uid":5082143,"size":732775196,"categoryP":"video","categoryS":"movies","magnet":"?xt=urn:btih:f8afaac2fb23e037102027cc223bec888dfae4b0&amp;dn=Orphan+2009+TS+XviD-Fatal&amp;tr=udp%3A%2F%2Ftracker.openbittorrent.com%3A80&amp;tr=udp%3A%2F%2Fopen.demonii.com%3A1337&amp;tr=udp%3A%2F%2Ftracker.coppersurfer.tk%3A6969&amp;tr=udp%3A%2F%2Fexodus.desync.com%3A6969","seeders":0,"leechers":0,"uploader":"extremezone","files":-1,"time":1252371467,"description":"Orphan 2009 TS XviD-Fatal\n\nFormat : AVI\nFormat/Info : Audio Video Interleave\nDuration : 1h 56mn\nOverall bit rate : 840 Kbps\nWriting application : VirtualDubMod 1.5.4.1 (build 2178/release)\nWriting library : VirtualDubMod build 2178/release\n Video\nFormat : MPEG-4 Visual\nFormat profile : Streaming Video@L1\nFormat settings, BVOP : Yes\nFormat settings, QPel : No\nFormat settings, GMC : No warppoints\nFormat settings, Matrix : Custom\nCodec ID : XVID\nCodec ID/Hint : XviD\nDuration : 1h 56mn\nBit rate : 719 Kbps\nWidth : 640 pixels\nHeight : 272 pixels\nDisplay aspect ratio : 2.35\nFrame rate : 29.970 fps\nResolution : 24 bits\nColorimetry : 4:2:0\nScan type : Progressive\nBits/(Pixel*Frame) : 0.138\nStream size : 598 MiB (86%)\nWriting library : XviD 50\n Audio\nFormat : MPEG Audio\nFormat version : Version 1\nFormat profile : Layer 3\nCodec ID : 55\nCodec ID/Hint : MP3\nDuration : 1h 56mn\nBit rate mode : Variable\nBit rate : 107 Kbps\nMinimum bit rate : 128 Kbps\nChannel(s) : 2 channels\nSampling rate : 48.0 KHz\nResolution : 16 bits\nStream size : 88.9 MiB (13%)\nAlignment : Aligned on interleaves\nInterleave, duration : 24 ms (0.72 video frame)\nInterleave, preload duration : 233 ms\nWriting library : LAME3.98r\nEncoding settings : ABR\n\nScreens: &lt;a href=&quot;\nhttp://img.moviedl.net/images/02438931581400022845.png&quot; rel=&quot;nofollow&quot; target=&quot;_NEW&quot;&gt;\nhttp://img.moviedl.net/images/02438931581400022845.png&lt;/a&gt; &lt;a href=&quot;\nhttp://img.moviedl.net/images/83759097958049435201.png&quot; rel=&quot;nofollow&quot; target=&quot;_NEW&quot;&gt;\nhttp://img.moviedl.net/images/83759097958049435201.png&lt;/a&gt;\n\n\n","torrent":{"xt":"urn:btih:f8afaac2fb23e037102027cc223bec888dfae4b0","amp;dn":"Orphan+2009+TS+XviD-Fatal","amp;tr":["udp%3A%2F%2Ftracker.openbittorrent.com%3A80","udp%3A%2F%2Fopen.demonii.com%3A1337","udp%3A%2F%2Ftracker.coppersurfer.tk%3A6969","udp%3A%2F%2Fexodus.desync.com%3A6969"],"infoHash":"f8afaac2fb23e037102027cc223bec888dfae4b0","infoHashBuffer":{"type":"Buffer","data":[248,175,170,194,251,35,224,55,16,32,39,204,34,59,236,136,141,250,228,176]},"announce":[],"urlList":[]}}